<svg
  xmlns="http://www.w3.org/2000/svg"
  xmlns:xlink="http://www.w3.org/1999/xlink"
  width="2000"
  zoomAndPan="magnify"
  viewBox="0 0 1500 749.999995"
  height="1000"
  preserveAspectRatio="xMidYMid meet"
  version="1.0"
>
  <defs>
    <filter x="0%" y="0%" width="100%" height="100%" id="fe40565b20">
      <feColorMatrix
        values="0 0 0 0 1 0 0 0 0 1 0 0 0 0 1 0 0 0 1 0"
        color-interpolation-filters="sRGB"
      />
    </filter>
    <g />
    <clipPath id="6a75d461ad">
      <path
        d="M 0 198.277344 L 340.78125 198.277344 L 340.78125 522.277344 L 0 522.277344 Z M 0 198.277344 "
        clip-rule="nonzero"
      />
    </clipPath>
    <clipPath id="da9ed9684a">
      <path
        d="M 215 198.277344 L 373.03125 198.277344 L 373.03125 311 L 215 311 Z M 215 198.277344 "
        clip-rule="nonzero"
      />
    </clipPath>
    <clipPath id="474979b98d">
      <path
        d="M 47 377 L 226 377 L 226 513.277344 L 47 513.277344 Z M 47 377 "
        clip-rule="nonzero"
      />
    </clipPath>
    <mask id="6a2c54b91c">
      <g filter="url(#fe40565b20)">
        <rect
          x="-150"
          width="1800"
          fill="#000000"
          y="-74.999999"
          height="899.999994"
          fill-opacity="0.298"
        />
      </g>
    </mask>
    <clipPath id="696e0f75a1">
      <path
        d="M 0 0.636719 L 198 0.636719 L 198 327.636719 L 0 327.636719 Z M 0 0.636719 "
        clip-rule="nonzero"
      />
    </clipPath>
    <clipPath id="aa5a8e29fc">
      <rect x="0" width="199" y="0" height="329" />
    </clipPath>
  </defs>
  <g clip-path="url(#6a75d461ad)">
    <path
      fill="#a5b4fc"
      d="M 56.472656 198.277344 C 56.472656 198.277344 -1.941406 245.332031 22.023438 292.089844 C 35.847656 319.066406 78.621094 335.550781 56.875 392.496094 C 39.519531 437.957031 53.648438 475.199219 111.105469 485.109375 C 153.964844 492.503906 284.886719 435.957031 340.746094 521.976562 C 340.746094 522.277344 -6.433594 521.996094 -6.433594 521.996094 L -6.433594 198.277344 Z M 56.472656 198.277344 "
      fill-opacity="1"
      fill-rule="evenodd"
    />
  </g>
  <path
    fill="#a5b4fc"
    d="M 146.453125 414.355469 L 84.917969 414.355469 L 205.417969 274.363281 L 266.945312 274.363281 Z M 146.453125 414.355469 "
    fill-opacity="1"
    fill-rule="nonzero"
  />
  <path
    fill="#a5b4fc"
    d="M 283.667969 350.070312 L 222.136719 350.070312 L 295.757812 264.535156 L 357.292969 264.535156 Z M 283.667969 350.070312 "
    fill-opacity="1"
    fill-rule="nonzero"
  />
  <path
    fill="#a5b4fc"
    d="M 115.292969 355.058594 L 6.304688 355.058594 L 136.71875 203.550781 L 245.707031 203.550781 Z M 115.292969 355.058594 "
    fill-opacity="1"
    fill-rule="nonzero"
  />
  <g clip-path="url(#da9ed9684a)">
    <path
      fill="#a5b4fc"
      d="M 276.566406 310.40625 L 215.039062 310.40625 L 311.535156 198.300781 L 373.066406 198.300781 Z M 276.566406 310.40625 "
      fill-opacity="1"
      fill-rule="nonzero"
    />
  </g>
  <path
    fill="#a5b4fc"
    d="M 229.582031 428.386719 L 193.609375 428.386719 L 250.035156 362.835938 L 286.007812 362.835938 Z M 229.582031 428.386719 "
    fill-opacity="1"
    fill-rule="nonzero"
  />
  <g clip-path="url(#474979b98d)">
    <path
      fill="#a5b4fc"
      d="M 108.617188 513.289062 L 47.085938 513.289062 L 163.898438 377.585938 L 225.429688 377.585938 Z M 108.617188 513.289062 "
      fill-opacity="1"
      fill-rule="nonzero"
    />
  </g>
  <path
    fill="#a5b4fc"
    d="M 55.058594 479.527344 L -6.46875 479.527344 L 196.953125 243.210938 L 258.480469 243.210938 Z M 55.058594 479.527344 "
    fill-opacity="1"
    fill-rule="nonzero"
  />
  <g mask="url(#6a2c54b91c)">
    <g transform="matrix(1, 0, 0, 1, 0, 266)">
      <g clip-path="url(#aa5a8e29fc)">
        <g clip-path="url(#696e0f75a1)">
          <path
            fill="#ffffff"
            d="M 24.453125 0.636719 C -12.515625 -0.496094 -67.179688 30.753906 -76.480469 73.78125 C -88.046875 127.222656 -59.242188 110.011719 -52.210938 154.171875 C -39.054688 236.375 -49.261719 293.894531 51.21875 321.296875 C 273.726562 381.757812 225.640625 6.296875 24.453125 0.636719 Z M 24.453125 0.636719 "
            fill-opacity="1"
            fill-rule="nonzero"
          />
        </g>
      </g>
    </g>
  </g>
  <g fill="#ffffff" fill-opacity="1">
    <g transform="translate(483.1429, 320.260288)">
      <g>
        <path
          d="M 159.703125 -74.90625 C 159.703125 -71.84375 162.453125 -69.488281 167.953125 -67.84375 C 163.304688 -65.96875 160.070312 -64.207031 158.25 -62.5625 C 154.789062 -59.332031 152.066406 -55.132812 150.078125 -49.96875 L 135.265625 -7.40625 C 132.085938 0.65625 129.675781 5.195312 128.03125 6.21875 C 127.519531 6.550781 126.921875 6.71875 126.234375 6.71875 C 125.554688 6.71875 124.992188 6.519531 124.546875 6.125 L 95.515625 -78.234375 L 68.875 -7.40625 C 65.695312 0.539062 63.285156 5.082031 61.640625 6.21875 C 61.117188 6.550781 60.519531 6.71875 59.84375 6.71875 C 59.164062 6.71875 58.597656 6.519531 58.140625 6.125 L 30.640625 -55.765625 C 29.285156 -58.992188 27.84375 -61.289062 26.3125 -62.65625 C 23.925781 -64.695312 20.800781 -66.425781 16.9375 -67.84375 C 21.820312 -70.625 24.207031 -73.207031 24.09375 -75.59375 C 24.09375 -77.125 23.523438 -79.253906 22.390625 -81.984375 L 20 -87.765625 L 8.421875 -119.015625 C 5.472656 -121.054688 2.90625 -122.078125 0.71875 -122.078125 C -1.457031 -122.078125 -3.257812 -121.59375 -4.6875 -120.625 C -5.3125 -121.082031 -5.625 -121.929688 -5.625 -123.171875 C -5.625 -124.421875 -5.421875 -125.570312 -5.015625 -126.625 C -4.617188 -127.675781 -4 -128.597656 -3.15625 -129.390625 C -1.332031 -131.097656 1.304688 -131.953125 4.765625 -131.953125 C 8.222656 -131.953125 11.289062 -130.957031 13.96875 -128.96875 C 16.800781 -130.957031 20.160156 -131.953125 24.046875 -131.953125 C 27.929688 -131.953125 31.125 -130.988281 33.625 -129.0625 C 36.632812 -130.988281 39.441406 -131.953125 42.046875 -131.953125 C 44.660156 -131.953125 46.757812 -131.765625 48.34375 -131.390625 C 49.9375 -131.023438 51.332031 -130.472656 52.53125 -129.734375 C 55.082031 -128.253906 56.414062 -126.210938 56.53125 -123.609375 C 56.53125 -122.015625 56.21875 -121.019531 55.59375 -120.625 C 54.0625 -121.59375 52.5 -122.078125 50.90625 -122.078125 C 47.332031 -122.078125 44.550781 -121.394531 42.5625 -120.03125 L 70.234375 -42.734375 L 89.046875 -96.96875 L 81.46875 -119.09375 C 78.570312 -121.082031 76.046875 -122.078125 73.890625 -122.078125 C 71.734375 -122.078125 69.945312 -121.59375 68.53125 -120.625 C 67.90625 -121.082031 67.59375 -121.929688 67.59375 -123.171875 C 67.59375 -124.421875 67.789062 -125.570312 68.1875 -126.625 C 68.582031 -127.675781 69.207031 -128.597656 70.0625 -129.390625 C 71.875 -131.097656 74.507812 -131.953125 77.96875 -131.953125 C 81.4375 -131.953125 84.503906 -130.957031 87.171875 -128.96875 C 90.003906 -130.957031 93.363281 -131.953125 97.25 -131.953125 C 101.144531 -131.953125 104.34375 -130.988281 106.84375 -129.0625 C 109.84375 -130.988281 112.648438 -131.953125 115.265625 -131.953125 C 117.878906 -131.953125 119.976562 -131.765625 121.5625 -131.390625 C 123.15625 -131.023438 124.546875 -130.472656 125.734375 -129.734375 C 128.285156 -128.253906 129.617188 -126.210938 129.734375 -123.609375 C 129.734375 -122.015625 129.421875 -121.019531 128.796875 -120.625 C 127.265625 -121.59375 125.707031 -122.078125 124.125 -122.078125 C 120.425781 -122.078125 117.613281 -121.367188 115.6875 -119.953125 L 138.421875 -48.6875 L 161.40625 -119.78125 C 159.59375 -121.59375 156.984375 -122.5 153.578125 -122.5 C 150.171875 -122.5 147.644531 -122.015625 146 -121.046875 C 145.425781 -121.898438 145.140625 -123.234375 145.140625 -125.046875 C 145.140625 -126.867188 145.90625 -128.472656 147.4375 -129.859375 C 148.96875 -131.253906 151.148438 -131.953125 153.984375 -131.953125 C 156.828125 -131.953125 159.269531 -131.210938 161.3125 -129.734375 C 163.132812 -131.210938 165.347656 -131.953125 167.953125 -131.953125 C 170.566406 -131.953125 172.753906 -131.328125 174.515625 -130.078125 C 177.015625 -131.328125 179.507812 -131.953125 182 -131.953125 C 184.5 -131.953125 186.5 -131.140625 188 -129.515625 C 189.507812 -127.898438 190.265625 -125.816406 190.265625 -123.265625 C 190.265625 -121.960938 189.953125 -121.082031 189.328125 -120.625 C 187.847656 -121.59375 186.0625 -122.078125 183.96875 -122.078125 C 180.101562 -122.078125 176.835938 -120.628906 174.171875 -117.734375 L 162.59375 -85.8125 C 160.664062 -80.476562 159.703125 -76.84375 159.703125 -74.90625 Z M 98.234375 -106.75 C 97.390625 -105.5625 96.96875 -103.773438 96.96875 -101.390625 C 96.96875 -99.003906 97.445312 -96.421875 98.40625 -93.640625 L 101.46875 -84.53125 L 124.546875 -22.5625 C 124.828125 -22.894531 124.925781 -23.488281 124.84375 -24.34375 C 124.757812 -25.195312 124.71875 -26.429688 124.71875 -28.046875 C 124.71875 -29.660156 124.628906 -31.078125 124.453125 -32.296875 C 124.285156 -33.523438 124.0625 -34.789062 123.78125 -36.09375 C 123.382812 -38.363281 122.703125 -40.914062 121.734375 -43.75 Z M 27.078125 -106.40625 C 25.941406 -105.726562 25.375 -104.664062 25.375 -103.21875 C 25.375 -101.769531 25.425781 -100.675781 25.53125 -99.9375 C 25.644531 -99.195312 25.875 -98.234375 26.21875 -97.046875 C 26.957031 -94.035156 27.90625 -90.867188 29.0625 -87.546875 C 30.226562 -84.234375 31.007812 -81.878906 31.40625 -80.484375 C 31.8125 -79.097656 32.113281 -77.921875 32.3125 -76.953125 C 32.507812 -75.992188 32.632812 -75.203125 32.6875 -74.578125 C 32.75 -73.953125 32.804688 -73.269531 32.859375 -72.53125 C 32.972656 -71 31.210938 -69.492188 27.578125 -68.015625 C 29.910156 -67.566406 31.742188 -67.171875 33.078125 -66.828125 C 34.410156 -66.484375 35.359375 -65.84375 35.921875 -64.90625 C 36.492188 -63.96875 37.300781 -62.421875 38.34375 -60.265625 C 39.394531 -58.109375 40.519531 -55.671875 41.71875 -52.953125 L 45.375 -44.265625 C 46.625 -41.253906 47.71875 -38.472656 48.65625 -35.921875 C 49.59375 -33.367188 50.472656 -31.28125 51.296875 -29.65625 C 52.117188 -28.039062 52.894531 -26.722656 53.625 -25.703125 C 55.050781 -23.941406 56.695312 -22.894531 58.5625 -22.5625 C 55.445312 -30.21875 52.507812 -37.773438 49.75 -45.234375 C 47 -52.703125 44.203125 -59.910156 41.359375 -66.859375 C 38.523438 -73.816406 36.046875 -80.585938 33.921875 -87.171875 C 31.796875 -93.753906 29.515625 -100.164062 27.078125 -106.40625 Z M 27.078125 -106.40625 "
        />
      </g>
    </g>
  </g>
  <g fill="#ffffff" fill-opacity="1">
    <g transform="translate(666.979837, 320.260288)">
      <g>
        <path
          d="M 27.078125 -9.53125 C 23.492188 -13.164062 20.664062 -17.476562 18.59375 -22.46875 C 16.53125 -27.46875 15.269531 -31.753906 14.8125 -35.328125 C 14.351562 -38.898438 13.96875 -41.195312 13.65625 -42.21875 C 13.34375 -43.238281 12.820312 -44.207031 12.09375 -45.125 C 10.613281 -46.988281 7.914062 -48.890625 4 -50.828125 C 8.9375 -53.035156 12.085938 -56.582031 13.453125 -61.46875 C 13.847656 -62.820312 14.160156 -64.179688 14.390625 -65.546875 C 15.859375 -75.703125 20.765625 -84.195312 29.109375 -91.03125 C 37.453125 -97.875 47.1875 -101.296875 58.3125 -101.296875 C 69.882812 -101.296875 79.84375 -97.835938 88.1875 -90.921875 C 96.300781 -84.160156 101.097656 -75.703125 102.578125 -65.546875 C 103.085938 -61.972656 103.851562 -59.363281 104.875 -57.71875 C 106.800781 -54.707031 109.5 -52.410156 112.96875 -50.828125 C 109.101562 -48.953125 106.601562 -47.304688 105.46875 -45.890625 C 103.9375 -43.898438 102.972656 -41.539062 102.578125 -38.8125 C 100.765625 -25.425781 96.109375 -15.253906 88.609375 -8.296875 C 81.117188 -1.347656 71.132812 2.125 58.65625 2.125 C 45.257812 2.125 34.734375 -1.757812 27.078125 -9.53125 Z M 72.953125 -68.015625 C 72.953125 -82.203125 68.128906 -89.296875 58.484375 -89.296875 C 48.835938 -89.296875 44.015625 -82.203125 44.015625 -68.015625 L 44.015625 -30.3125 C 44.015625 -16.6875 48.804688 -9.875 58.390625 -9.875 C 68.097656 -9.875 72.953125 -16.6875 72.953125 -30.3125 Z M 81.125 -22.5625 C 83.96875 -23.632812 85.53125 -27.351562 85.8125 -33.71875 C 86.15625 -40.070312 86.328125 -44.796875 86.328125 -47.890625 C 86.328125 -50.984375 86.3125 -53.5625 86.28125 -55.625 C 86.25 -57.695312 86.207031 -59.84375 86.15625 -62.0625 C 85.925781 -70.34375 85.269531 -75.164062 84.1875 -76.53125 C 83.113281 -77.894531 82.09375 -78.800781 81.125 -79.25 Z M 30.140625 -22.5625 C 30.929688 -23.1875 31.328125 -23.894531 31.328125 -24.6875 C 31.328125 -25.9375 31.070312 -27.523438 30.5625 -29.453125 C 28.238281 -38.359375 27.078125 -44.554688 27.078125 -48.046875 C 27.078125 -51.546875 27.1875 -54.273438 27.40625 -56.234375 C 27.632812 -58.191406 27.921875 -60.160156 28.265625 -62.140625 C 29.003906 -66.003906 29.769531 -69.410156 30.5625 -72.359375 C 31.070312 -74.285156 31.328125 -75.59375 31.328125 -76.28125 C 31.328125 -77.632812 30.929688 -78.625 30.140625 -79.25 C 27.753906 -76.414062 25.9375 -72.613281 24.6875 -67.84375 C 23.4375 -63.082031 22.414062 -58.882812 21.625 -55.25 C 21.34375 -53.71875 19.664062 -52.242188 16.59375 -50.828125 C 19.664062 -49.398438 21.34375 -47.976562 21.625 -46.5625 C 23.71875 -36.96875 25.445312 -30.863281 26.8125 -28.25 C 28.175781 -25.644531 29.285156 -23.75 30.140625 -22.5625 Z M 30.140625 -22.5625 "
        />
      </g>
    </g>
  </g>
  <g fill="#ffffff" fill-opacity="1">
    <g transform="translate(783.95151, 320.260288)">
      <g>
        <path
          d="M 23.40625 -1.015625 C 20.800781 0.796875 17.820312 1.703125 14.46875 1.703125 C 11.125 1.703125 8.695312 0.921875 7.1875 -0.640625 C 5.6875 -2.203125 4.9375 -3.691406 4.9375 -5.109375 C 4.9375 -6.984375 5.25 -8.34375 5.875 -9.1875 C 7.125 -8.226562 8.710938 -7.75 10.640625 -7.75 C 14.273438 -7.75 16.628906 -9.507812 17.703125 -13.03125 L 17.703125 -38.8125 C 17.703125 -41.425781 17.191406 -43.359375 16.171875 -44.609375 C 14.359375 -46.816406 11.410156 -48.914062 7.328125 -50.90625 C 14.242188 -54.082031 17.703125 -58.960938 17.703125 -65.546875 L 17.703125 -74.484375 C 17.703125 -79.304688 16.054688 -81.914062 12.765625 -82.3125 C 11.804688 -82.425781 10.585938 -82.484375 9.109375 -82.484375 C 7.628906 -82.484375 6.265625 -82.003906 5.015625 -81.046875 C 4.222656 -82.117188 3.828125 -83.238281 3.828125 -84.40625 C 3.828125 -85.570312 4.125 -86.875 4.71875 -88.3125 C 5.320312 -89.757812 6.242188 -91.140625 7.484375 -92.453125 C 10.441406 -95.515625 13.890625 -97.046875 17.828125 -97.046875 C 21.773438 -97.046875 25.054688 -96.421875 27.671875 -95.171875 C 30.785156 -98.691406 34.132812 -100.453125 37.71875 -100.453125 C 43.269531 -100.453125 46.046875 -97.390625 46.046875 -91.265625 L 46.046875 -79.59375 C 51.722656 -93.550781 60.75 -100.53125 73.125 -100.53125 C 78.6875 -100.53125 83.195312 -98.828125 86.65625 -95.421875 C 90.238281 -91.960938 92.03125 -87.171875 92.03125 -81.046875 L 92.03125 -79.84375 C 92.03125 -79.445312 91.972656 -78.640625 91.859375 -77.421875 C 91.742188 -76.203125 91.785156 -74.96875 91.984375 -73.71875 C 92.179688 -72.46875 92.503906 -71.445312 92.953125 -70.65625 C 93.578125 -69.46875 94.742188 -68.53125 96.453125 -67.84375 C 96.054688 -66.3125 95.132812 -64.9375 93.6875 -63.71875 C 92.238281 -62.5 90.632812 -61.890625 88.875 -61.890625 L 87.25 -61.890625 C 85.039062 -59.109375 81.953125 -57.148438 77.984375 -56.015625 C 76.847656 -55.671875 75.613281 -55.5 74.28125 -55.5 C 72.945312 -55.5 71.78125 -55.796875 70.78125 -56.390625 C 69.789062 -56.992188 69.238281 -57.632812 69.125 -58.3125 C 70.195312 -58.820312 70.734375 -59.84375 70.734375 -61.375 L 70.734375 -61.796875 C 70.285156 -61.691406 69.890625 -61.640625 69.546875 -61.640625 L 68.703125 -61.640625 C 66.828125 -61.640625 65.132812 -62.347656 63.625 -63.765625 C 62.125 -65.179688 61.148438 -66.96875 60.703125 -69.125 C 63.765625 -69.007812 66.429688 -70.144531 68.703125 -72.53125 C 70.742188 -74.625 71.765625 -76.78125 71.765625 -79 C 71.765625 -84.21875 69.492188 -86.828125 64.953125 -86.828125 C 61.035156 -86.828125 57.09375 -83.707031 53.125 -77.46875 C 49.375 -71.738281 47.015625 -65.804688 46.046875 -59.671875 L 46.046875 -13.625 C 46.671875 -11.632812 47.632812 -10.15625 48.9375 -9.1875 C 50.25 -8.226562 52.039062 -7.75 54.3125 -7.75 C 56.582031 -7.75 58.34375 -8.226562 59.59375 -9.1875 C 60.21875 -8.34375 60.53125 -7.097656 60.53125 -5.453125 C 60.53125 -3.804688 59.773438 -2.203125 58.265625 -0.640625 C 56.765625 0.921875 54.238281 1.703125 50.6875 1.703125 C 47.144531 1.703125 43.753906 0.738281 40.515625 -1.1875 C 38.242188 0.738281 35.488281 1.703125 32.25 1.703125 C 29.019531 1.703125 26.070312 0.796875 23.40625 -1.015625 Z M 30.765625 -41.40625 C 30.796875 -43.3125 30.828125 -44.914062 30.859375 -46.21875 C 30.890625 -47.53125 30.90625 -48.582031 30.90625 -49.375 L 30.90625 -51.671875 C 30.90625 -52.523438 30.890625 -53.617188 30.859375 -54.953125 C 30.828125 -56.285156 30.796875 -57.785156 30.765625 -59.453125 C 30.742188 -61.128906 30.703125 -62.765625 30.640625 -64.359375 C 30.304688 -70.253906 29.671875 -74.039062 28.734375 -75.71875 C 27.796875 -77.394531 26.84375 -78.546875 25.875 -79.171875 L 25.875 -73.640625 C 25.875 -64.097656 25.660156 -58.488281 25.234375 -56.8125 C 24.816406 -55.144531 24.140625 -53.898438 23.203125 -53.078125 C 22.265625 -52.253906 20.882812 -51.53125 19.0625 -50.90625 C 22.46875 -49.71875 24.398438 -48.269531 24.859375 -46.5625 C 25.535156 -43.84375 25.875 -37.710938 25.875 -28.171875 L 25.875 -22.640625 C 28.488281 -24.347656 29.96875 -27.8125 30.3125 -33.03125 C 30.59375 -36.71875 30.742188 -39.507812 30.765625 -41.40625 Z M 30.765625 -41.40625 "
        />
      </g>
    </g>
  </g>
  <g fill="#ffffff" fill-opacity="1">
    <g transform="translate(877.613918, 320.260288)">
      <g>
        <path
          d="M 23.40625 -1.015625 C 20.800781 0.796875 17.835938 1.703125 14.515625 1.703125 C 11.191406 1.703125 8.722656 0.96875 7.109375 -0.5 C 5.492188 -1.976562 4.6875 -3.398438 4.6875 -4.765625 C 4.6875 -6.640625 5.082031 -8.113281 5.875 -9.1875 C 7.125 -8.226562 8.710938 -7.75 10.640625 -7.75 C 13.929688 -7.75 16.285156 -9.648438 17.703125 -13.453125 L 17.703125 -39.578125 C 17.703125 -42.078125 17.191406 -43.894531 16.171875 -45.03125 C 14.585938 -46.789062 11.640625 -48.722656 7.328125 -50.828125 C 11.296875 -52.640625 13.816406 -54.082031 14.890625 -55.15625 C 16.765625 -57.03125 17.703125 -59.332031 17.703125 -62.0625 L 17.703125 -110.234375 C 17.703125 -116.710938 15.066406 -119.953125 9.796875 -119.953125 C 7.859375 -119.953125 6.265625 -119.46875 5.015625 -118.5 C 4.222656 -119.570312 3.828125 -120.691406 3.828125 -121.859375 C 3.828125 -123.023438 4.125 -124.144531 4.71875 -125.21875 C 5.320312 -126.300781 6.242188 -127.296875 7.484375 -128.203125 C 10.160156 -130.128906 13.539062 -131.09375 17.625 -131.09375 C 21.707031 -131.09375 24.882812 -130.835938 27.15625 -130.328125 C 30.28125 -134.242188 33.800781 -136.203125 37.71875 -136.203125 C 43.5625 -136.203125 46.484375 -133.140625 46.484375 -127.015625 L 46.484375 -55.765625 L 71.078125 -78.484375 C 74.828125 -82.347656 76.703125 -85.128906 76.703125 -86.828125 C 76.703125 -88.535156 75.625 -89.390625 73.46875 -89.390625 C 71.3125 -89.390625 69.296875 -88.847656 67.421875 -87.765625 C 66.796875 -88.785156 66.484375 -90.101562 66.484375 -91.71875 C 66.484375 -93.34375 67.332031 -94.921875 69.03125 -96.453125 C 70.738281 -97.984375 73.148438 -98.75 76.265625 -98.75 C 79.390625 -98.75 82.144531 -97.785156 84.53125 -95.859375 C 86.75 -97.785156 89.160156 -98.75 91.765625 -98.75 C 94.378906 -98.75 96.648438 -97.984375 98.578125 -96.453125 C 100.503906 -97.984375 102.773438 -98.75 105.390625 -98.75 C 108.003906 -98.75 110.175781 -98.066406 111.90625 -96.703125 C 113.632812 -95.335938 114.5 -93.523438 114.5 -91.265625 C 114.5 -89.160156 114.210938 -87.710938 113.640625 -86.921875 C 112.109375 -88.453125 110.222656 -89.21875 107.984375 -89.21875 C 105.742188 -89.21875 103.925781 -88.890625 102.53125 -88.234375 C 101.144531 -87.578125 99.628906 -86.640625 97.984375 -85.421875 C 96.335938 -84.203125 94.519531 -82.710938 92.53125 -80.953125 L 78.40625 -68.703125 L 104.375 -17.625 C 105.957031 -14.21875 107.359375 -11.71875 108.578125 -10.125 C 109.796875 -8.539062 111.351562 -7.75 113.25 -7.75 C 115.15625 -7.75 116.734375 -8.226562 117.984375 -9.1875 C 118.785156 -8.113281 119.1875 -6.765625 119.1875 -5.140625 C 119.1875 -3.523438 118.375 -1.976562 116.75 -0.5 C 115.132812 0.96875 112.566406 1.703125 109.046875 1.703125 C 105.523438 1.703125 102.117188 0.738281 98.828125 -1.1875 C 96.160156 0.738281 93.222656 1.703125 90.015625 1.703125 C 86.816406 1.703125 84.023438 0.851562 81.640625 -0.84375 C 79.421875 0.851562 76.9375 1.703125 74.1875 1.703125 C 71.4375 1.703125 69.238281 1.035156 67.59375 -0.296875 C 65.945312 -1.628906 65.125 -3.316406 65.125 -5.359375 C 65.125 -7.398438 65.550781 -8.789062 66.40625 -9.53125 C 68.613281 -7.832031 70.828125 -7.550781 73.046875 -8.6875 C 73.835938 -9.082031 74.546875 -9.847656 75.171875 -10.984375 L 57.125 -50.21875 L 46.484375 -40.953125 L 46.484375 -12.171875 C 47.554688 -9.390625 49.34375 -8 51.84375 -8 C 53.144531 -8 54.453125 -8.507812 55.765625 -9.53125 C 56.609375 -8.789062 57.03125 -7.382812 57.03125 -5.3125 C 57.03125 -3.25 56.207031 -1.5625 54.5625 -0.25 C 52.914062 1.050781 50.703125 1.703125 47.921875 1.703125 C 45.140625 1.703125 42.644531 0.851562 40.4375 -0.84375 C 38.113281 0.851562 35.359375 1.703125 32.171875 1.703125 C 28.992188 1.703125 26.070312 0.796875 23.40625 -1.015625 Z M 30.5625 -52.6875 L 30.640625 -64.015625 L 30.640625 -80.703125 C 30.640625 -91.253906 30.441406 -97.410156 30.046875 -99.171875 C 29.253906 -102.640625 27.804688 -105.050781 25.703125 -106.40625 L 25.703125 -77.71875 C 25.703125 -65.96875 25.570312 -59.425781 25.3125 -58.09375 C 25.0625 -56.757812 24.851562 -55.78125 24.6875 -55.15625 C 24.175781 -53.40625 22.25 -51.960938 18.90625 -50.828125 C 22.300781 -49.628906 24.226562 -48.207031 24.6875 -46.5625 C 25.363281 -43.84375 25.703125 -37.710938 25.703125 -28.171875 L 25.703125 -22.640625 C 28.710938 -24.566406 30.300781 -29.675781 30.46875 -37.96875 L 30.46875 -43.078125 C 30.53125 -44.773438 30.5625 -46.28125 30.5625 -47.59375 Z M 79.765625 -22.5625 C 80.503906 -23.519531 80.875 -24.820312 80.875 -26.46875 C 80.875 -28.113281 80.742188 -29.585938 80.484375 -30.890625 C 80.234375 -32.203125 79.910156 -33.507812 79.515625 -34.8125 C 78.773438 -36.914062 77.695312 -39.414062 76.28125 -42.3125 L 68.1875 -59.84375 L 64.359375 -56.4375 Z M 79.765625 -22.5625 "
        />
      </g>
    </g>
  </g>
  <g fill="#ffffff" fill-opacity="1">
    <g transform="translate(994.585591, 320.260288)">
      <g>
        <path
          d="M 82.15625 -25.703125 C 83.394531 -28.085938 85.691406 -29.28125 89.046875 -29.28125 C 91.316406 -29.28125 93.078125 -28.34375 94.328125 -26.46875 C 95.347656 -25 95.859375 -23.195312 95.859375 -21.0625 C 95.859375 -18.9375 95.316406 -16.796875 94.234375 -14.640625 C 93.160156 -12.484375 91.6875 -10.523438 89.8125 -8.765625 C 87.9375 -7.003906 85.789062 -5.441406 83.375 -4.078125 C 80.96875 -2.722656 78.398438 -1.59375 75.671875 -0.6875 C 70.054688 1.1875 64.210938 2.125 58.140625 2.125 C 52.066406 2.125 46.375 1.117188 41.0625 -0.890625 C 35.757812 -2.910156 31.207031 -5.734375 27.40625 -9.359375 C 19.976562 -16.515625 15.441406 -26.332031 13.796875 -38.8125 C 13.390625 -41.59375 12.734375 -43.582031 11.828125 -44.78125 C 10.128906 -46.875 7.320312 -48.890625 3.40625 -50.828125 C 8.34375 -53.035156 11.492188 -56.582031 12.859375 -61.46875 C 13.253906 -62.820312 13.566406 -64.179688 13.796875 -65.546875 C 15.210938 -75.535156 20.257812 -84.050781 28.9375 -91.09375 C 37.34375 -97.894531 46.738281 -101.296875 57.125 -101.296875 C 67.90625 -101.296875 77.238281 -97.492188 85.125 -89.890625 C 93.300781 -82.054688 97.390625 -72.4375 97.390625 -61.03125 C 97.390625 -60.632812 97.375 -60.238281 97.34375 -59.84375 C 97.3125 -59.445312 97.328125 -59.078125 97.390625 -58.734375 C 97.503906 -57.992188 97.957031 -57.570312 98.75 -57.46875 C 99.769531 -56.15625 100.28125 -54.765625 100.28125 -53.296875 C 100.28125 -49.890625 98.460938 -47.875 94.828125 -47.25 C 93.921875 -47.070312 92.503906 -46.84375 90.578125 -46.5625 L 42.5625 -38.90625 L 42.5625 -30.734375 C 42.5625 -24.148438 44.546875 -18.925781 48.515625 -15.0625 C 52.265625 -11.375 57.003906 -9.53125 62.734375 -9.53125 C 68.804688 -9.53125 73.6875 -10.78125 77.375 -13.28125 C 80.84375 -15.664062 82.578125 -18.785156 82.578125 -22.640625 C 82.578125 -23.546875 82.4375 -24.566406 82.15625 -25.703125 Z M 67.25 -53.203125 L 67.25 -77.046875 C 67.25 -80.785156 66.507812 -83.535156 65.03125 -85.296875 C 62.425781 -88.304688 59.84375 -89.8125 57.28125 -89.8125 C 54.726562 -89.8125 52.601562 -89.425781 50.90625 -88.65625 C 49.207031 -87.894531 47.734375 -86.691406 46.484375 -85.046875 C 43.867188 -81.578125 42.5625 -76.1875 42.5625 -68.875 L 42.5625 -49.203125 Z M 79.84375 -55.328125 L 79.84375 -57.96875 C 79.84375 -68.53125 78.96875 -74.914062 77.21875 -77.125 C 76.414062 -78.09375 75.535156 -78.800781 74.578125 -79.25 L 74.578125 -54.484375 Z M 28.6875 -22.5625 C 29.476562 -23.1875 29.875 -23.894531 29.875 -24.6875 C 29.875 -25.9375 29.617188 -27.523438 29.109375 -29.453125 C 26.785156 -38.359375 25.625 -44.554688 25.625 -48.046875 C 25.625 -51.546875 25.738281 -54.273438 25.96875 -56.234375 C 26.195312 -58.191406 26.507812 -60.160156 26.90625 -62.140625 C 27.582031 -66.003906 28.316406 -69.410156 29.109375 -72.359375 C 29.617188 -74.285156 29.875 -75.59375 29.875 -76.28125 C 29.875 -77.632812 29.476562 -78.625 28.6875 -79.25 C 26.300781 -76.414062 24.484375 -72.613281 23.234375 -67.84375 C 21.992188 -63.082031 20.972656 -58.882812 20.171875 -55.25 C 19.890625 -53.71875 18.21875 -52.242188 15.15625 -50.828125 C 18.21875 -49.398438 19.890625 -47.976562 20.171875 -46.5625 C 22.273438 -36.96875 24.003906 -30.863281 25.359375 -28.25 C 26.722656 -25.644531 27.832031 -23.75 28.6875 -22.5625 Z M 28.6875 -22.5625 "
        />
      </g>
    </g>
  </g>
  <g fill="#ffffff" fill-opacity="1">
    <g transform="translate(1098.371366, 320.260288)">
      <g>
        <path
          d="M 23.40625 -1.015625 C 20.800781 0.796875 17.820312 1.703125 14.46875 1.703125 C 11.125 1.703125 8.695312 0.921875 7.1875 -0.640625 C 5.6875 -2.203125 4.9375 -3.691406 4.9375 -5.109375 C 4.9375 -6.984375 5.25 -8.34375 5.875 -9.1875 C 7.125 -8.226562 8.710938 -7.75 10.640625 -7.75 C 14.273438 -7.75 16.628906 -9.507812 17.703125 -13.03125 L 17.703125 -38.8125 C 17.703125 -41.425781 17.191406 -43.359375 16.171875 -44.609375 C 14.359375 -46.816406 11.410156 -48.914062 7.328125 -50.90625 C 14.242188 -54.082031 17.703125 -58.960938 17.703125 -65.546875 L 17.703125 -74.484375 C 17.703125 -79.304688 16.054688 -81.914062 12.765625 -82.3125 C 11.804688 -82.425781 10.585938 -82.484375 9.109375 -82.484375 C 7.628906 -82.484375 6.265625 -82.003906 5.015625 -81.046875 C 4.222656 -82.117188 3.828125 -83.238281 3.828125 -84.40625 C 3.828125 -85.570312 4.125 -86.875 4.71875 -88.3125 C 5.320312 -89.757812 6.242188 -91.140625 7.484375 -92.453125 C 10.441406 -95.515625 13.890625 -97.046875 17.828125 -97.046875 C 21.773438 -97.046875 25.054688 -96.421875 27.671875 -95.171875 C 30.785156 -98.691406 34.132812 -100.453125 37.71875 -100.453125 C 43.269531 -100.453125 46.046875 -97.390625 46.046875 -91.265625 L 46.046875 -79.59375 C 51.722656 -93.550781 60.75 -100.53125 73.125 -100.53125 C 78.6875 -100.53125 83.195312 -98.828125 86.65625 -95.421875 C 90.238281 -91.960938 92.03125 -87.171875 92.03125 -81.046875 L 92.03125 -79.84375 C 92.03125 -79.445312 91.972656 -78.640625 91.859375 -77.421875 C 91.742188 -76.203125 91.785156 -74.96875 91.984375 -73.71875 C 92.179688 -72.46875 92.503906 -71.445312 92.953125 -70.65625 C 93.578125 -69.46875 94.742188 -68.53125 96.453125 -67.84375 C 96.054688 -66.3125 95.132812 -64.9375 93.6875 -63.71875 C 92.238281 -62.5 90.632812 -61.890625 88.875 -61.890625 L 87.25 -61.890625 C 85.039062 -59.109375 81.953125 -57.148438 77.984375 -56.015625 C 76.847656 -55.671875 75.613281 -55.5 74.28125 -55.5 C 72.945312 -55.5 71.78125 -55.796875 70.78125 -56.390625 C 69.789062 -56.992188 69.238281 -57.632812 69.125 -58.3125 C 70.195312 -58.820312 70.734375 -59.84375 70.734375 -61.375 L 70.734375 -61.796875 C 70.285156 -61.691406 69.890625 -61.640625 69.546875 -61.640625 L 68.703125 -61.640625 C 66.828125 -61.640625 65.132812 -62.347656 63.625 -63.765625 C 62.125 -65.179688 61.148438 -66.96875 60.703125 -69.125 C 63.765625 -69.007812 66.429688 -70.144531 68.703125 -72.53125 C 70.742188 -74.625 71.765625 -76.78125 71.765625 -79 C 71.765625 -84.21875 69.492188 -86.828125 64.953125 -86.828125 C 61.035156 -86.828125 57.09375 -83.707031 53.125 -77.46875 C 49.375 -71.738281 47.015625 -65.804688 46.046875 -59.671875 L 46.046875 -13.625 C 46.671875 -11.632812 47.632812 -10.15625 48.9375 -9.1875 C 50.25 -8.226562 52.039062 -7.75 54.3125 -7.75 C 56.582031 -7.75 58.34375 -8.226562 59.59375 -9.1875 C 60.21875 -8.34375 60.53125 -7.097656 60.53125 -5.453125 C 60.53125 -3.804688 59.773438 -2.203125 58.265625 -0.640625 C 56.765625 0.921875 54.238281 1.703125 50.6875 1.703125 C 47.144531 1.703125 43.753906 0.738281 40.515625 -1.1875 C 38.242188 0.738281 35.488281 1.703125 32.25 1.703125 C 29.019531 1.703125 26.070312 0.796875 23.40625 -1.015625 Z M 30.765625 -41.40625 C 30.796875 -43.3125 30.828125 -44.914062 30.859375 -46.21875 C 30.890625 -47.53125 30.90625 -48.582031 30.90625 -49.375 L 30.90625 -51.671875 C 30.90625 -52.523438 30.890625 -53.617188 30.859375 -54.953125 C 30.828125 -56.285156 30.796875 -57.785156 30.765625 -59.453125 C 30.742188 -61.128906 30.703125 -62.765625 30.640625 -64.359375 C 30.304688 -70.253906 29.671875 -74.039062 28.734375 -75.71875 C 27.796875 -77.394531 26.84375 -78.546875 25.875 -79.171875 L 25.875 -73.640625 C 25.875 -64.097656 25.660156 -58.488281 25.234375 -56.8125 C 24.816406 -55.144531 24.140625 -53.898438 23.203125 -53.078125 C 22.265625 -52.253906 20.882812 -51.53125 19.0625 -50.90625 C 22.46875 -49.71875 24.398438 -48.269531 24.859375 -46.5625 C 25.535156 -43.84375 25.875 -37.710938 25.875 -28.171875 L 25.875 -22.640625 C 28.488281 -24.347656 29.96875 -27.8125 30.3125 -33.03125 C 30.59375 -36.71875 30.742188 -39.507812 30.765625 -41.40625 Z M 30.765625 -41.40625 "
        />
      </g>
    </g>
  </g>
  <g fill="#ffffff" fill-opacity="1">
    <g transform="translate(1192.033774, 320.260288)">
      <g>
        <path
          d="M 24.609375 -69.296875 C 23.410156 -69.296875 22.554688 -69.804688 22.046875 -70.828125 C 21.253906 -72.523438 20.601562 -75.019531 20.09375 -78.3125 C 19.582031 -81.601562 19.054688 -84.507812 18.515625 -87.03125 C 17.972656 -89.5625 17.359375 -92.085938 16.671875 -94.609375 C 15.992188 -97.140625 15.289062 -99.597656 14.5625 -101.984375 L 12.421875 -108.453125 C 10.773438 -113.222656 7.769531 -116.316406 3.40625 -117.734375 C 7.09375 -119.609375 9.675781 -121.789062 11.15625 -124.28125 C 14.269531 -129.394531 18.804688 -131.953125 24.765625 -131.953125 C 27.546875 -131.953125 30.128906 -131.296875 32.515625 -129.984375 C 34.898438 -128.679688 36.671875 -127.066406 37.828125 -125.140625 C 38.992188 -123.210938 40.171875 -121.75 41.359375 -120.75 C 42.554688 -119.757812 44.148438 -118.753906 46.140625 -117.734375 C 41.765625 -116.316406 38.753906 -113.222656 37.109375 -108.453125 L 34.984375 -101.984375 C 32.492188 -93.921875 30.90625 -87.691406 30.21875 -83.296875 C 29.539062 -78.898438 29.03125 -76.019531 28.6875 -74.65625 C 28.34375 -73.289062 27.972656 -72.210938 27.578125 -71.421875 C 26.785156 -70.003906 25.796875 -69.296875 24.609375 -69.296875 Z M 20.59375 -97.984375 L 20.59375 -115.953125 C 20.59375 -121.054688 20.960938 -124.203125 21.703125 -125.390625 C 19.941406 -124.941406 18.609375 -124.207031 17.703125 -123.1875 C 16.796875 -122.164062 16.085938 -121.34375 15.578125 -120.71875 C 14.722656 -119.632812 13.363281 -118.640625 11.5 -117.734375 C 13.65625 -116.316406 15.1875 -114.640625 16.09375 -112.703125 C 17.507812 -109.703125 19.007812 -104.796875 20.59375 -97.984375 Z M 20.59375 -97.984375 "
        />
      </g>
    </g>
  </g>
  <g fill="#ffffff" fill-opacity="1">
    <g transform="translate(1241.544693, 320.260288)">
      <g>
        <path
          d="M 24.859375 -2.046875 C 20.992188 1.640625 17.273438 3.484375 13.703125 3.484375 C 11.710938 3.484375 10.351562 2.75 9.625 1.28125 C 10.925781 -0.03125 11.578125 -1.335938 11.578125 -2.640625 C 11.578125 -3.941406 11.378906 -4.9375 10.984375 -5.625 L 9.875 -7.578125 L 11.234375 -5.015625 C 9.867188 -5.640625 8.816406 -6.691406 8.078125 -8.171875 C 7.347656 -9.648438 6.984375 -11.453125 6.984375 -13.578125 C 6.984375 -15.703125 8.175781 -18.128906 10.5625 -20.859375 C 9.425781 -22.441406 8.859375 -24.195312 8.859375 -26.125 C 8.859375 -28.0625 9.179688 -29.664062 9.828125 -30.9375 C 10.484375 -32.21875 11.320312 -33.367188 12.34375 -34.390625 C 14.613281 -36.546875 17.023438 -37.625 19.578125 -37.625 C 21.285156 -37.625 22.503906 -37.03125 23.234375 -35.84375 C 21.703125 -34.195312 20.9375 -31.597656 20.9375 -28.046875 C 20.9375 -24.503906 21.546875 -21.484375 22.765625 -18.984375 C 23.992188 -16.484375 25.65625 -14.351562 27.75 -12.59375 C 32.175781 -8.851562 37.625 -6.984375 44.09375 -6.984375 C 51.300781 -6.984375 56.296875 -9.617188 59.078125 -14.890625 C 59.867188 -16.484375 60.265625 -18.085938 60.265625 -19.703125 C 60.265625 -21.328125 59.894531 -22.773438 59.15625 -24.046875 C 58.425781 -25.328125 57.460938 -26.5625 56.265625 -27.75 C 54.285156 -29.675781 51.25 -31.890625 47.15625 -34.390625 C 43.238281 -37.171875 38.613281 -38.5625 33.28125 -38.5625 C 29.820312 -38.5625 27.5 -38.28125 26.3125 -37.71875 C 27.039062 -39.414062 27.40625 -41.113281 27.40625 -42.8125 C 27.40625 -44.519531 26.269531 -46.378906 24 -48.390625 C 21.726562 -50.410156 19.695312 -52.441406 17.90625 -54.484375 C 16.125 -56.523438 14.695312 -58.566406 13.625 -60.609375 C 11.46875 -64.472656 10.390625 -68.5625 10.390625 -72.875 C 10.390625 -77.1875 11.28125 -81 13.0625 -84.3125 C 14.851562 -87.632812 17.363281 -90.488281 20.59375 -92.875 C 27.351562 -97.925781 36.007812 -100.453125 46.5625 -100.453125 C 51.675781 -100.453125 55.179688 -100.222656 57.078125 -99.765625 C 58.984375 -99.316406 60.503906 -98.894531 61.640625 -98.5 C 63.171875 -97.925781 65.039062 -97.640625 67.25 -97.640625 C 69.46875 -97.640625 71.015625 -98.117188 71.890625 -99.078125 C 72.765625 -100.046875 73.203125 -100.941406 73.203125 -101.765625 C 73.203125 -102.585938 73.117188 -103.226562 72.953125 -103.6875 C 73.296875 -103.800781 73.804688 -103.859375 74.484375 -103.859375 C 75.171875 -103.859375 75.953125 -103.660156 76.828125 -103.265625 C 77.703125 -102.867188 78.484375 -102.328125 79.171875 -101.640625 C 80.535156 -100.109375 81.21875 -98.476562 81.21875 -96.75 C 81.21875 -95.019531 80.875 -93.703125 80.1875 -92.796875 C 81.78125 -91.316406 82.578125 -89.210938 82.578125 -86.484375 C 82.578125 -83.765625 81.441406 -81.46875 79.171875 -79.59375 C 79.679688 -78.570312 79.9375 -77.320312 79.9375 -75.84375 C 79.9375 -74.375 79.140625 -72.957031 77.546875 -71.59375 C 75.960938 -70.226562 74.460938 -69.546875 73.046875 -69.546875 C 70.597656 -69.546875 68.953125 -69.859375 68.109375 -70.484375 C 68.835938 -72.296875 69.203125 -74.265625 69.203125 -76.390625 C 69.203125 -78.523438 68.632812 -80.554688 67.5 -82.484375 C 66.363281 -84.421875 64.921875 -85.984375 63.171875 -87.171875 C 59.878906 -89.441406 55.960938 -90.578125 51.421875 -90.578125 C 45.679688 -90.578125 41.820312 -88.757812 39.84375 -85.125 C 39.21875 -83.988281 38.90625 -82.753906 38.90625 -81.421875 C 38.90625 -80.085938 39.085938 -78.867188 39.453125 -77.765625 C 39.828125 -76.660156 40.4375 -75.539062 41.28125 -74.40625 C 42.925781 -72.1875 45.253906 -70.085938 48.265625 -68.109375 C 52.179688 -65.546875 54.90625 -64.265625 56.4375 -64.265625 C 59.726562 -64.265625 62.59375 -65.0625 65.03125 -66.65625 C 64.351562 -63.925781 64.015625 -62.023438 64.015625 -60.953125 C 64.015625 -59.304688 65.320312 -57.40625 67.9375 -55.25 C 75.257812 -50.195312 80.253906 -45.570312 82.921875 -41.375 C 85.472656 -37.289062 86.75 -32.75 86.75 -27.75 C 86.75 -22.757812 85.640625 -18.488281 83.421875 -14.9375 C 81.210938 -11.394531 78.207031 -8.34375 74.40625 -5.78125 C 66.507812 -0.507812 56.945312 2.125 45.71875 2.125 C 38.050781 2.125 31.097656 0.734375 24.859375 -2.046875 Z M 21.875 -80.015625 C 20.226562 -79.222656 19.40625 -77.023438 19.40625 -73.421875 C 19.40625 -69.816406 20.566406 -66.382812 22.890625 -63.125 C 25.222656 -59.863281 28.914062 -56.1875 33.96875 -52.09375 C 35.15625 -51.1875 35.75 -50.304688 35.75 -49.453125 C 35.75 -48.148438 35.632812 -47.101562 35.40625 -46.3125 C 36.09375 -46.476562 37.285156 -46.648438 38.984375 -46.828125 C 43.128906 -47.222656 48.265625 -45.289062 54.390625 -41.03125 C 64.160156 -35.019531 69.046875 -28.691406 69.046875 -22.046875 C 69.046875 -19.546875 68.703125 -17.675781 68.015625 -16.4375 C 70.054688 -16.832031 71.617188 -18.5625 72.703125 -21.625 C 72.984375 -22.53125 73.125 -23.46875 73.125 -24.4375 C 73.125 -29.03125 70.640625 -33.695312 65.671875 -38.4375 C 60.710938 -43.175781 53.578125 -47.757812 44.265625 -52.1875 C 28.828125 -60.019531 21.363281 -69.296875 21.875 -80.015625 Z M 21.875 -80.015625 "
        />
      </g>
    </g>
  </g>
  <g fill="#ffffff" fill-opacity="1">
    <g transform="translate(462.691876, 520.087087)">
      <g>
        <path
          d="M 38.3125 1.703125 C 34.5625 1.703125 31.238281 0.796875 28.34375 -1.015625 C 25.445312 0.796875 22.765625 1.703125 20.296875 1.703125 C 17.828125 1.703125 15.796875 1.488281 14.203125 1.0625 C 12.617188 0.632812 11.234375 0.0507812 10.046875 -0.6875 C 7.609375 -2.15625 6.390625 -4 6.390625 -6.21875 C 6.390625 -7.351562 6.703125 -8.34375 7.328125 -9.1875 C 8.566406 -8.226562 10.15625 -7.75 12.09375 -7.75 C 17.144531 -7.75 20.632812 -9.90625 22.5625 -14.21875 L 22.5625 -55.84375 C 22.5625 -58.457031 22.019531 -60.390625 20.9375 -61.640625 C 19.238281 -63.734375 16.316406 -65.800781 12.171875 -67.84375 C 16.035156 -69.601562 18.535156 -71.164062 19.671875 -72.53125 C 21.597656 -74.738281 22.5625 -77.234375 22.5625 -80.015625 L 22.5625 -115.953125 C 20.632812 -120.316406 17.144531 -122.5 12.09375 -122.5 C 10.15625 -122.5 8.566406 -122.015625 7.328125 -121.046875 C 6.703125 -121.898438 6.390625 -122.878906 6.390625 -123.984375 C 6.390625 -125.097656 6.710938 -126.132812 7.359375 -127.09375 C 8.015625 -128.0625 8.910156 -128.882812 10.046875 -129.5625 C 12.660156 -131.15625 15.65625 -131.953125 19.03125 -131.953125 C 22.40625 -131.953125 25.507812 -131.015625 28.34375 -129.140625 C 31.300781 -131.015625 34.59375 -131.953125 38.21875 -131.953125 C 41.851562 -131.953125 45.144531 -131.015625 48.09375 -129.140625 C 51.269531 -131.015625 54.164062 -131.953125 56.78125 -131.953125 C 59.394531 -131.953125 61.492188 -131.738281 63.078125 -131.3125 C 64.671875 -130.882812 66.0625 -130.300781 67.25 -129.5625 C 69.6875 -128.09375 70.90625 -126.25 70.90625 -124.03125 C 70.90625 -122.894531 70.59375 -121.898438 69.96875 -121.046875 C 68.726562 -122.015625 67.054688 -122.5 64.953125 -122.5 C 62.847656 -122.5 60.734375 -121.945312 58.609375 -120.84375 C 56.484375 -119.738281 54.910156 -118.078125 53.890625 -115.859375 L 53.890625 -80.015625 C 53.890625 -77.234375 54.484375 -75.164062 55.671875 -73.8125 C 57.546875 -71.59375 60.410156 -69.601562 64.265625 -67.84375 C 60.128906 -65.800781 57.492188 -64.128906 56.359375 -62.828125 C 54.710938 -60.785156 53.890625 -58.457031 53.890625 -55.84375 L 53.890625 -18.640625 C 57.628906 -12.679688 62.3125 -9.703125 67.9375 -9.703125 C 81.84375 -9.703125 90.78125 -15.601562 94.75 -27.40625 C 96.507812 -32.632812 97.390625 -37.414062 97.390625 -41.75 C 97.390625 -46.09375 96.789062 -49.003906 95.59375 -50.484375 C 96.90625 -51.554688 98.253906 -52.09375 99.640625 -52.09375 C 101.035156 -52.09375 102.328125 -51.804688 103.515625 -51.234375 C 104.703125 -50.671875 105.78125 -49.820312 106.75 -48.6875 C 108.738281 -46.363281 109.734375 -43.613281 109.734375 -40.4375 C 109.734375 -37.257812 109.476562 -34.816406 108.96875 -33.109375 C 111.570312 -30.953125 112.875 -27.914062 112.875 -24 C 112.875 -20.082031 111.769531 -16.90625 109.5625 -14.46875 C 111.4375 -12.082031 112.375 -9.925781 112.375 -8 C 112.375 -6.070312 112.101562 -4.410156 111.5625 -3.015625 C 111.019531 -1.628906 110.269531 -0.394531 109.3125 0.6875 C 107.15625 2.894531 104.570312 4 101.5625 4 C 100.082031 4 98.71875 3.6875 97.46875 3.0625 C 97.695312 1.8125 97.8125 0.5625 97.8125 -0.6875 C 97.8125 -3.289062 96.617188 -4.59375 94.234375 -4.59375 C 92.472656 -4.59375 90.035156 -3.882812 86.921875 -2.46875 C 80.898438 0.3125 74.046875 1.703125 66.359375 1.703125 C 58.671875 1.703125 52.671875 0.707031 48.359375 -1.28125 C 45.398438 0.707031 42.050781 1.703125 38.3125 1.703125 Z M 30.734375 -22.5625 C 33.566406 -23.632812 35.125 -27.351562 35.40625 -33.71875 C 35.75 -40.070312 35.921875 -48.863281 35.921875 -60.09375 C 35.921875 -71.332031 35.90625 -78.8125 35.875 -82.53125 C 35.851562 -86.25 35.8125 -89.242188 35.75 -91.515625 C 35.582031 -98.210938 34.941406 -102.253906 33.828125 -103.640625 C 32.722656 -105.035156 31.691406 -105.957031 30.734375 -106.40625 C 30.734375 -86.65625 30.390625 -75.421875 29.703125 -72.703125 C 28.910156 -70.429688 26.984375 -68.8125 23.921875 -67.84375 C 27.328125 -66.65625 29.253906 -65.207031 29.703125 -63.5 C 30.390625 -60.78125 30.734375 -50.820312 30.734375 -33.625 Z M 30.734375 -22.5625 "
        />
      </g>
    </g>
  </g>
  <g fill="#ffffff" fill-opacity="1">
    <g transform="translate(577.621861, 520.087087)">
      <g>
        <path
          d="M 27.078125 -9.53125 C 23.492188 -13.164062 20.664062 -17.476562 18.59375 -22.46875 C 16.53125 -27.46875 15.269531 -31.753906 14.8125 -35.328125 C 14.351562 -38.898438 13.96875 -41.195312 13.65625 -42.21875 C 13.34375 -43.238281 12.820312 -44.207031 12.09375 -45.125 C 10.613281 -46.988281 7.914062 -48.890625 4 -50.828125 C 8.9375 -53.035156 12.085938 -56.582031 13.453125 -61.46875 C 13.847656 -62.820312 14.160156 -64.179688 14.390625 -65.546875 C 15.859375 -75.703125 20.765625 -84.195312 29.109375 -91.03125 C 37.453125 -97.875 47.1875 -101.296875 58.3125 -101.296875 C 69.882812 -101.296875 79.84375 -97.835938 88.1875 -90.921875 C 96.300781 -84.160156 101.097656 -75.703125 102.578125 -65.546875 C 103.085938 -61.972656 103.851562 -59.363281 104.875 -57.71875 C 106.800781 -54.707031 109.5 -52.410156 112.96875 -50.828125 C 109.101562 -48.953125 106.601562 -47.304688 105.46875 -45.890625 C 103.9375 -43.898438 102.972656 -41.539062 102.578125 -38.8125 C 100.765625 -25.425781 96.109375 -15.253906 88.609375 -8.296875 C 81.117188 -1.347656 71.132812 2.125 58.65625 2.125 C 45.257812 2.125 34.734375 -1.757812 27.078125 -9.53125 Z M 72.953125 -68.015625 C 72.953125 -82.203125 68.128906 -89.296875 58.484375 -89.296875 C 48.835938 -89.296875 44.015625 -82.203125 44.015625 -68.015625 L 44.015625 -30.3125 C 44.015625 -16.6875 48.804688 -9.875 58.390625 -9.875 C 68.097656 -9.875 72.953125 -16.6875 72.953125 -30.3125 Z M 81.125 -22.5625 C 83.96875 -23.632812 85.53125 -27.351562 85.8125 -33.71875 C 86.15625 -40.070312 86.328125 -44.796875 86.328125 -47.890625 C 86.328125 -50.984375 86.3125 -53.5625 86.28125 -55.625 C 86.25 -57.695312 86.207031 -59.84375 86.15625 -62.0625 C 85.925781 -70.34375 85.269531 -75.164062 84.1875 -76.53125 C 83.113281 -77.894531 82.09375 -78.800781 81.125 -79.25 Z M 30.140625 -22.5625 C 30.929688 -23.1875 31.328125 -23.894531 31.328125 -24.6875 C 31.328125 -25.9375 31.070312 -27.523438 30.5625 -29.453125 C 28.238281 -38.359375 27.078125 -44.554688 27.078125 -48.046875 C 27.078125 -51.546875 27.1875 -54.273438 27.40625 -56.234375 C 27.632812 -58.191406 27.921875 -60.160156 28.265625 -62.140625 C 29.003906 -66.003906 29.769531 -69.410156 30.5625 -72.359375 C 31.070312 -74.285156 31.328125 -75.59375 31.328125 -76.28125 C 31.328125 -77.632812 30.929688 -78.625 30.140625 -79.25 C 27.753906 -76.414062 25.9375 -72.613281 24.6875 -67.84375 C 23.4375 -63.082031 22.414062 -58.882812 21.625 -55.25 C 21.34375 -53.71875 19.664062 -52.242188 16.59375 -50.828125 C 19.664062 -49.398438 21.34375 -47.976562 21.625 -46.5625 C 23.71875 -36.96875 25.445312 -30.863281 26.8125 -28.25 C 28.175781 -25.644531 29.285156 -23.75 30.140625 -22.5625 Z M 30.140625 -22.5625 "
        />
      </g>
    </g>
  </g>
  <g fill="#ffffff" fill-opacity="1">
    <g transform="translate(694.593534, 520.087087)">
      <g>
        <path
          d="M 18.390625 3.3125 C 14.304688 -0.425781 12.265625 -5.078125 12.265625 -10.640625 C 12.265625 -18.921875 17.171875 -25.734375 26.984375 -31.078125 C 20.566406 -35.554688 15.882812 -42.648438 12.9375 -52.359375 C 11.976562 -55.359375 11.015625 -57.398438 10.046875 -58.484375 C 8.628906 -60.179688 6.1875 -61.882812 2.71875 -63.59375 C 5.5625 -64.894531 7.734375 -66.566406 9.234375 -68.609375 C 10.742188 -70.648438 12.050781 -73.316406 13.15625 -76.609375 C 14.257812 -79.898438 15.816406 -83.050781 17.828125 -86.0625 C 19.847656 -89.070312 22.445312 -91.710938 25.625 -93.984375 C 32.601562 -98.859375 41.597656 -101.296875 52.609375 -101.296875 C 56.128906 -101.296875 59.789062 -100.929688 63.59375 -100.203125 C 64.382812 -106.378906 67.132812 -111.628906 71.84375 -115.953125 C 76.5 -120.316406 81.945312 -122.5 88.1875 -122.5 C 95.507812 -122.5 101.671875 -120.597656 106.671875 -116.796875 C 109.390625 -114.753906 112.113281 -113.988281 114.84375 -114.5 C 115.0625 -109.957031 113.300781 -107.035156 109.5625 -105.734375 C 108.9375 -98.066406 105.613281 -94.234375 99.59375 -94.234375 C 97.21875 -94.234375 95.773438 -94.40625 95.265625 -94.75 C 96.109375 -95.488281 96.53125 -96.4375 96.53125 -97.59375 C 96.53125 -98.757812 96.050781 -99.769531 95.09375 -100.625 C 93.894531 -98.40625 91.226562 -97.296875 87.09375 -97.296875 C 84.820312 -97.296875 83.03125 -98.375 81.71875 -100.53125 C 83.875 -101.21875 85.578125 -102.253906 86.828125 -103.640625 C 88.078125 -105.035156 88.703125 -106.328125 88.703125 -107.515625 C 88.703125 -110.640625 87.054688 -112.203125 83.765625 -112.203125 C 77.410156 -112.203125 73.691406 -107.265625 72.609375 -97.390625 C 82.941406 -92.960938 89.523438 -86.007812 92.359375 -76.53125 C 94.234375 -70.113281 97.695312 -65.800781 102.75 -63.59375 C 98.320312 -61.375 95.398438 -58.90625 93.984375 -56.1875 C 93.410156 -55.101562 92.898438 -53.828125 92.453125 -52.359375 C 89.390625 -42.703125 84.59375 -35.585938 78.0625 -31.015625 C 71.53125 -26.453125 63.128906 -24.171875 52.859375 -24.171875 C 46.335938 -24.171875 40.664062 -24.96875 35.84375 -26.5625 C 33.96875 -25.363281 33.03125 -24.039062 33.03125 -22.59375 C 33.03125 -21.15625 33.3125 -19.9375 33.875 -18.9375 C 34.445312 -17.945312 35.472656 -17.054688 36.953125 -16.265625 C 39.835938 -14.734375 45.335938 -13.367188 53.453125 -12.171875 C 57.148438 -11.429688 60.957031 -13.816406 64.875 -19.328125 C 65.09375 -16.429688 65.738281 -14.257812 66.8125 -12.8125 C 67.894531 -11.363281 69.09375 -10.554688 70.40625 -10.390625 C 86.0625 -8.054688 96.191406 -2.945312 100.796875 4.9375 C 102.378906 7.601562 103.171875 11.019531 103.171875 15.1875 C 103.171875 19.363281 101.835938 23.421875 99.171875 27.359375 C 96.503906 31.304688 92.898438 34.671875 88.359375 37.453125 C 78.941406 43.128906 67.363281 45.96875 53.625 45.96875 C 37.507812 45.96875 25.195312 43.328125 16.6875 38.046875 C 9.363281 33.453125 5.703125 27.582031 5.703125 20.4375 C 5.703125 15.664062 8.113281 11.148438 12.9375 6.890625 C 14.53125 5.535156 16.347656 4.34375 18.390625 3.3125 Z M 44.609375 -39.671875 C 45.859375 -37.910156 47.101562 -36.785156 48.34375 -36.296875 C 49.59375 -35.816406 51.054688 -35.578125 52.734375 -35.578125 C 54.410156 -35.578125 55.875 -35.816406 57.125 -36.296875 C 58.375 -36.785156 59.421875 -37.625 60.265625 -38.8125 C 61.910156 -41.144531 62.734375 -45.0625 62.734375 -50.5625 L 62.734375 -74.140625 C 62.734375 -79.648438 62.109375 -83.285156 60.859375 -85.046875 C 59.617188 -86.804688 58.375 -87.925781 57.125 -88.40625 C 55.875 -88.882812 54.410156 -89.125 52.734375 -89.125 C 51.054688 -89.125 49.59375 -88.882812 48.34375 -88.40625 C 47.101562 -87.925781 46.082031 -87.117188 45.28125 -85.984375 C 43.582031 -83.597656 42.734375 -79.648438 42.734375 -74.140625 L 42.734375 -50.5625 C 42.734375 -45.0625 43.359375 -41.429688 44.609375 -39.671875 Z M 71 -40.265625 C 73.601562 -41.171875 75.109375 -43.976562 75.515625 -48.6875 C 75.910156 -53.113281 76.109375 -58.082031 76.109375 -63.59375 C 76.109375 -72.101562 75.878906 -77.550781 75.421875 -79.9375 C 74.742188 -83.113281 73.269531 -85.1875 71 -86.15625 Z M 26.640625 -40.265625 C 27.773438 -41.117188 28.34375 -42.113281 28.34375 -43.25 C 28.34375 -44.71875 28.144531 -46.132812 27.75 -47.5 C 26.21875 -52.71875 25.453125 -58.082031 25.453125 -63.59375 C 25.453125 -69.039062 26.21875 -74.375 27.75 -79.59375 C 28.144531 -80.957031 28.34375 -82.035156 28.34375 -82.828125 L 28.34375 -84.875 C 28.34375 -85.382812 28.117188 -85.8125 27.671875 -86.15625 C 25.335938 -83.3125 23.644531 -80.070312 22.59375 -76.4375 C 21.550781 -72.8125 20.71875 -69.609375 20.09375 -66.828125 C 19.863281 -65.972656 18.273438 -64.894531 15.328125 -63.59375 C 18.328125 -62.113281 19.914062 -61.003906 20.09375 -60.265625 L 21.796875 -53.125 C 23.265625 -47.101562 24.878906 -42.816406 26.640625 -40.265625 Z M 22.296875 -9.953125 C 21.785156 -9.441406 21.53125 -8.707031 21.53125 -7.75 C 21.757812 -1.613281 30.5 3.007812 47.75 6.125 C 49.738281 6.582031 51.160156 8.738281 52.015625 12.59375 C 52.296875 11.34375 53.414062 10.304688 55.375 9.484375 C 57.332031 8.660156 58.648438 8.28125 59.328125 8.34375 C 67.898438 9.363281 73.691406 10.328125 76.703125 11.234375 C 82.035156 12.878906 85.921875 15.320312 88.359375 18.5625 C 89.046875 17.757812 89.390625 16.734375 89.390625 15.484375 C 89.390625 14.242188 88.765625 12.984375 87.515625 11.703125 C 86.265625 10.429688 84.222656 9.3125 81.390625 8.34375 C 76.503906 6.582031 69.890625 5.21875 61.546875 4.25 C 53.203125 3.289062 47.34375 2.441406 43.96875 1.703125 C 40.59375 0.960938 37.484375 0.0546875 34.640625 -1.015625 C 28.460938 -3.460938 24.347656 -6.441406 22.296875 -9.953125 Z M 26.90625 8.765625 C 22.875 10.523438 20.859375 13.816406 20.859375 18.640625 C 20.859375 22.503906 23.78125 25.992188 29.625 29.109375 C 36.15625 32.628906 44.582031 34.390625 54.90625 34.390625 C 67.625 34.390625 75.882812 32.207031 79.6875 27.84375 C 80.757812 26.644531 81.296875 25.378906 81.296875 24.046875 C 81.296875 22.710938 80.65625 21.535156 79.375 20.515625 C 78.101562 19.492188 76.445312 18.671875 74.40625 18.046875 C 71.394531 17.023438 66.65625 16.144531 60.1875 15.40625 C 57.0625 15.0625 53.203125 17.359375 48.609375 22.296875 C 48.609375 19.117188 48.082031 16.820312 47.03125 15.40625 C 45.976562 13.988281 44.941406 13.222656 43.921875 13.109375 C 37.335938 12.253906 31.664062 10.804688 26.90625 8.765625 Z M 26.90625 8.765625 "
        />
      </g>
    </g>
  </g>
  <g fill="#ffffff" fill-opacity="1">
    <g transform="translate(798.889731, 520.087087)">
      <g>
        <path
          d="M 11.75 -44.6875 C 11.289062 -45.488281 11.0625 -46.820312 11.0625 -48.6875 C 11.0625 -50.5625 11.984375 -52.4375 13.828125 -54.3125 C 15.671875 -56.1875 18.410156 -57.125 22.046875 -57.125 L 61.46875 -57.125 C 61.914062 -56.320312 62.140625 -54.984375 62.140625 -53.109375 C 62.140625 -51.242188 61.21875 -49.375 59.375 -47.5 C 57.53125 -45.625 54.789062 -44.6875 51.15625 -44.6875 Z M 11.75 -44.6875 "
        />
      </g>
    </g>
  </g>
  <g fill="#ffffff" fill-opacity="1">
    <g transform="translate(872.050196, 520.087087)">
      <g>
        <path
          d="M 38.3125 1.703125 C 34.5625 1.703125 31.238281 0.796875 28.34375 -1.015625 C 25.445312 0.796875 22.765625 1.703125 20.296875 1.703125 C 17.828125 1.703125 15.796875 1.488281 14.203125 1.0625 C 12.617188 0.632812 11.234375 0.0507812 10.046875 -0.6875 C 7.609375 -2.15625 6.390625 -4 6.390625 -6.21875 C 6.390625 -7.351562 6.703125 -8.34375 7.328125 -9.1875 C 8.566406 -8.226562 10.15625 -7.75 12.09375 -7.75 C 17.144531 -7.75 20.632812 -9.90625 22.5625 -14.21875 L 22.5625 -55.84375 C 22.5625 -58.394531 22.019531 -60.351562 20.9375 -61.71875 C 19.238281 -63.925781 16.316406 -66.023438 12.171875 -68.015625 C 15.972656 -69.773438 18.472656 -71.304688 19.671875 -72.609375 C 21.597656 -74.828125 22.5625 -77.296875 22.5625 -80.015625 L 22.5625 -115.953125 C 20.632812 -120.316406 17.144531 -122.5 12.09375 -122.5 C 10.15625 -122.5 8.566406 -122.015625 7.328125 -121.046875 C 6.703125 -121.898438 6.390625 -122.878906 6.390625 -123.984375 C 6.390625 -125.097656 6.710938 -126.132812 7.359375 -127.09375 C 8.015625 -128.0625 8.910156 -128.882812 10.046875 -129.5625 C 12.660156 -131.15625 15.65625 -131.953125 19.03125 -131.953125 C 22.40625 -131.953125 25.507812 -131.015625 28.34375 -129.140625 C 31.300781 -131.015625 34.59375 -131.953125 38.21875 -131.953125 C 42.195312 -131.953125 45.660156 -130.898438 48.609375 -128.796875 C 54.910156 -131.460938 61.179688 -132.796875 67.421875 -132.796875 C 73.660156 -132.796875 79.347656 -132.1875 84.484375 -130.96875 C 89.617188 -129.75 94.257812 -128.035156 98.40625 -125.828125 C 107.425781 -121.054688 113.046875 -114.867188 115.265625 -107.265625 C 116.515625 -103.066406 119.210938 -99.941406 123.359375 -97.890625 C 118.753906 -94.710938 115.914062 -91.082031 114.84375 -87 C 112.457031 -78.03125 107.628906 -72.1875 100.359375 -69.46875 C 111.035156 -66.507812 117.988281 -59.523438 121.21875 -48.515625 C 122.351562 -44.609375 125.050781 -41.40625 129.3125 -38.90625 C 124.9375 -36.46875 122.007812 -32.78125 120.53125 -27.84375 C 119.0625 -22.90625 116.46875 -18.460938 112.75 -14.515625 C 109.03125 -10.566406 104.703125 -7.316406 99.765625 -4.765625 C 90.234375 0.109375 79.476562 2.546875 67.5 2.546875 C 60.351562 2.546875 53.972656 1.269531 48.359375 -1.28125 C 45.398438 0.707031 42.050781 1.703125 38.3125 1.703125 Z M 69.8125 -73.546875 C 74.800781 -73.546875 78.347656 -74.738281 80.453125 -77.125 C 82.660156 -79.5625 83.765625 -83.757812 83.765625 -89.71875 L 83.765625 -109.390625 C 83.765625 -112.847656 81.945312 -115.769531 78.3125 -118.15625 C 75.132812 -120.257812 72.195312 -121.3125 69.5 -121.3125 C 66.8125 -121.3125 64.597656 -120.984375 62.859375 -120.328125 C 61.128906 -119.671875 59.585938 -118.773438 58.234375 -117.640625 C 55.335938 -115.265625 53.890625 -112.398438 53.890625 -109.046875 L 53.890625 -73.546875 Z M 88.625 -119.34375 C 90.550781 -115.03125 91.515625 -108.734375 91.515625 -100.453125 C 91.515625 -88.253906 90.71875 -80.335938 89.125 -76.703125 C 91.507812 -77.148438 93.523438 -79.445312 95.171875 -83.59375 C 95.796875 -85.125 96.265625 -86.738281 96.578125 -88.4375 C 96.890625 -90.144531 97.144531 -91.46875 97.34375 -92.40625 C 97.539062 -93.34375 97.835938 -94.148438 98.234375 -94.828125 C 99.085938 -96.253906 100.617188 -97.332031 102.828125 -98.0625 C 100.566406 -98.800781 99.148438 -99.597656 98.578125 -100.453125 C 97.835938 -101.421875 97.238281 -103.179688 96.78125 -105.734375 C 96.332031 -108.285156 95.796875 -110.367188 95.171875 -111.984375 C 94.546875 -113.597656 93.863281 -114.921875 93.125 -115.953125 C 91.707031 -117.992188 90.207031 -119.125 88.625 -119.34375 Z M 30.734375 -22.5625 C 33.566406 -23.632812 35.125 -27.351562 35.40625 -33.71875 C 35.75 -40.070312 35.921875 -48.863281 35.921875 -60.09375 C 35.921875 -71.332031 35.90625 -78.8125 35.875 -82.53125 C 35.851562 -86.25 35.8125 -89.242188 35.75 -91.515625 C 35.582031 -98.210938 34.941406 -102.253906 33.828125 -103.640625 C 32.722656 -105.035156 31.691406 -105.957031 30.734375 -106.40625 C 30.734375 -86.65625 30.390625 -75.421875 29.703125 -72.703125 C 28.910156 -70.429688 26.984375 -68.8125 23.921875 -67.84375 C 27.328125 -66.65625 29.253906 -65.207031 29.703125 -63.5 C 30.390625 -60.78125 30.734375 -50.820312 30.734375 -33.625 Z M 53.890625 -22.21875 C 53.890625 -18.25 55.390625 -14.984375 58.390625 -12.421875 C 61.285156 -10.046875 64.75 -8.859375 68.78125 -8.859375 C 72.695312 -8.859375 75.988281 -9.707031 78.65625 -11.40625 C 83.769531 -14.757812 86.328125 -18.59375 86.328125 -22.90625 L 86.328125 -47.84375 C 86.328125 -53.007812 84.648438 -56.894531 81.296875 -59.5 C 78.460938 -61.71875 74.742188 -62.828125 70.140625 -62.828125 L 53.890625 -62.828125 Z M 92.03125 -60.1875 C 93.382812 -57.125 94.0625 -50.03125 94.0625 -38.90625 C 94.0625 -24.832031 93.550781 -16.570312 92.53125 -14.125 C 93.726562 -14.351562 94.945312 -15.800781 96.1875 -18.46875 C 97.4375 -21.132812 98.316406 -23.882812 98.828125 -26.71875 C 99.335938 -29.5625 99.691406 -31.492188 99.890625 -32.515625 C 100.097656 -33.535156 100.398438 -34.445312 100.796875 -35.25 C 101.703125 -36.945312 103.234375 -38.164062 105.390625 -38.90625 C 101.984375 -39.976562 99.984375 -42.128906 99.390625 -45.359375 C 98.796875 -48.597656 98.210938 -51.097656 97.640625 -52.859375 C 97.078125 -54.617188 96.484375 -56.007812 95.859375 -57.03125 C 94.773438 -58.851562 93.5 -59.90625 92.03125 -60.1875 Z M 92.03125 -60.1875 "
        />
      </g>
    </g>
  </g>
  <g fill="#ffffff" fill-opacity="1">
    <g transform="translate(1001.442133, 520.087087)">
      <g>
        <path
          d="M 27.078125 -9.53125 C 23.492188 -13.164062 20.664062 -17.476562 18.59375 -22.46875 C 16.53125 -27.46875 15.269531 -31.753906 14.8125 -35.328125 C 14.351562 -38.898438 13.96875 -41.195312 13.65625 -42.21875 C 13.34375 -43.238281 12.820312 -44.207031 12.09375 -45.125 C 10.613281 -46.988281 7.914062 -48.890625 4 -50.828125 C 8.9375 -53.035156 12.085938 -56.582031 13.453125 -61.46875 C 13.847656 -62.820312 14.160156 -64.179688 14.390625 -65.546875 C 15.859375 -75.703125 20.765625 -84.195312 29.109375 -91.03125 C 37.453125 -97.875 47.1875 -101.296875 58.3125 -101.296875 C 69.882812 -101.296875 79.84375 -97.835938 88.1875 -90.921875 C 96.300781 -84.160156 101.097656 -75.703125 102.578125 -65.546875 C 103.085938 -61.972656 103.851562 -59.363281 104.875 -57.71875 C 106.800781 -54.707031 109.5 -52.410156 112.96875 -50.828125 C 109.101562 -48.953125 106.601562 -47.304688 105.46875 -45.890625 C 103.9375 -43.898438 102.972656 -41.539062 102.578125 -38.8125 C 100.765625 -25.425781 96.109375 -15.253906 88.609375 -8.296875 C 81.117188 -1.347656 71.132812 2.125 58.65625 2.125 C 45.257812 2.125 34.734375 -1.757812 27.078125 -9.53125 Z M 72.953125 -68.015625 C 72.953125 -82.203125 68.128906 -89.296875 58.484375 -89.296875 C 48.835938 -89.296875 44.015625 -82.203125 44.015625 -68.015625 L 44.015625 -30.3125 C 44.015625 -16.6875 48.804688 -9.875 58.390625 -9.875 C 68.097656 -9.875 72.953125 -16.6875 72.953125 -30.3125 Z M 81.125 -22.5625 C 83.96875 -23.632812 85.53125 -27.351562 85.8125 -33.71875 C 86.15625 -40.070312 86.328125 -44.796875 86.328125 -47.890625 C 86.328125 -50.984375 86.3125 -53.5625 86.28125 -55.625 C 86.25 -57.695312 86.207031 -59.84375 86.15625 -62.0625 C 85.925781 -70.34375 85.269531 -75.164062 84.1875 -76.53125 C 83.113281 -77.894531 82.09375 -78.800781 81.125 -79.25 Z M 30.140625 -22.5625 C 30.929688 -23.1875 31.328125 -23.894531 31.328125 -24.6875 C 31.328125 -25.9375 31.070312 -27.523438 30.5625 -29.453125 C 28.238281 -38.359375 27.078125 -44.554688 27.078125 -48.046875 C 27.078125 -51.546875 27.1875 -54.273438 27.40625 -56.234375 C 27.632812 -58.191406 27.921875 -60.160156 28.265625 -62.140625 C 29.003906 -66.003906 29.769531 -69.410156 30.5625 -72.359375 C 31.070312 -74.285156 31.328125 -75.59375 31.328125 -76.28125 C 31.328125 -77.632812 30.929688 -78.625 30.140625 -79.25 C 27.753906 -76.414062 25.9375 -72.613281 24.6875 -67.84375 C 23.4375 -63.082031 22.414062 -58.882812 21.625 -55.25 C 21.34375 -53.71875 19.664062 -52.242188 16.59375 -50.828125 C 19.664062 -49.398438 21.34375 -47.976562 21.625 -46.5625 C 23.71875 -36.96875 25.445312 -30.863281 26.8125 -28.25 C 28.175781 -25.644531 29.285156 -23.75 30.140625 -22.5625 Z M 30.140625 -22.5625 "
        />
      </g>
    </g>
  </g>
  <g fill="#ffffff" fill-opacity="1">
    <g transform="translate(1118.413806, 520.087087)">
      <g>
        <path
          d="M 27.078125 -9.53125 C 23.492188 -13.164062 20.664062 -17.476562 18.59375 -22.46875 C 16.53125 -27.46875 15.269531 -31.753906 14.8125 -35.328125 C 14.351562 -38.898438 13.96875 -41.195312 13.65625 -42.21875 C 13.34375 -43.238281 12.820312 -44.207031 12.09375 -45.125 C 10.613281 -46.988281 7.914062 -48.890625 4 -50.828125 C 8.9375 -53.035156 12.085938 -56.582031 13.453125 -61.46875 C 13.847656 -62.820312 14.160156 -64.179688 14.390625 -65.546875 C 15.859375 -75.703125 20.765625 -84.195312 29.109375 -91.03125 C 37.453125 -97.875 47.1875 -101.296875 58.3125 -101.296875 C 69.882812 -101.296875 79.84375 -97.835938 88.1875 -90.921875 C 96.300781 -84.160156 101.097656 -75.703125 102.578125 -65.546875 C 103.085938 -61.972656 103.851562 -59.363281 104.875 -57.71875 C 106.800781 -54.707031 109.5 -52.410156 112.96875 -50.828125 C 109.101562 -48.953125 106.601562 -47.304688 105.46875 -45.890625 C 103.9375 -43.898438 102.972656 -41.539062 102.578125 -38.8125 C 100.765625 -25.425781 96.109375 -15.253906 88.609375 -8.296875 C 81.117188 -1.347656 71.132812 2.125 58.65625 2.125 C 45.257812 2.125 34.734375 -1.757812 27.078125 -9.53125 Z M 72.953125 -68.015625 C 72.953125 -82.203125 68.128906 -89.296875 58.484375 -89.296875 C 48.835938 -89.296875 44.015625 -82.203125 44.015625 -68.015625 L 44.015625 -30.3125 C 44.015625 -16.6875 48.804688 -9.875 58.390625 -9.875 C 68.097656 -9.875 72.953125 -16.6875 72.953125 -30.3125 Z M 81.125 -22.5625 C 83.96875 -23.632812 85.53125 -27.351562 85.8125 -33.71875 C 86.15625 -40.070312 86.328125 -44.796875 86.328125 -47.890625 C 86.328125 -50.984375 86.3125 -53.5625 86.28125 -55.625 C 86.25 -57.695312 86.207031 -59.84375 86.15625 -62.0625 C 85.925781 -70.34375 85.269531 -75.164062 84.1875 -76.53125 C 83.113281 -77.894531 82.09375 -78.800781 81.125 -79.25 Z M 30.140625 -22.5625 C 30.929688 -23.1875 31.328125 -23.894531 31.328125 -24.6875 C 31.328125 -25.9375 31.070312 -27.523438 30.5625 -29.453125 C 28.238281 -38.359375 27.078125 -44.554688 27.078125 -48.046875 C 27.078125 -51.546875 27.1875 -54.273438 27.40625 -56.234375 C 27.632812 -58.191406 27.921875 -60.160156 28.265625 -62.140625 C 29.003906 -66.003906 29.769531 -69.410156 30.5625 -72.359375 C 31.070312 -74.285156 31.328125 -75.59375 31.328125 -76.28125 C 31.328125 -77.632812 30.929688 -78.625 30.140625 -79.25 C 27.753906 -76.414062 25.9375 -72.613281 24.6875 -67.84375 C 23.4375 -63.082031 22.414062 -58.882812 21.625 -55.25 C 21.34375 -53.71875 19.664062 -52.242188 16.59375 -50.828125 C 19.664062 -49.398438 21.34375 -47.976562 21.625 -46.5625 C 23.71875 -36.96875 25.445312 -30.863281 26.8125 -28.25 C 28.175781 -25.644531 29.285156 -23.75 30.140625 -22.5625 Z M 30.140625 -22.5625 "
        />
      </g>
    </g>
  </g>
  <g fill="#ffffff" fill-opacity="1">
    <g transform="translate(1235.385478, 520.087087)">
      <g>
        <path
          d="M 23.40625 -1.015625 C 20.800781 0.796875 17.835938 1.703125 14.515625 1.703125 C 11.191406 1.703125 8.722656 0.96875 7.109375 -0.5 C 5.492188 -1.976562 4.6875 -3.398438 4.6875 -4.765625 C 4.6875 -6.640625 5.082031 -8.113281 5.875 -9.1875 C 7.125 -8.226562 8.710938 -7.75 10.640625 -7.75 C 13.929688 -7.75 16.285156 -9.648438 17.703125 -13.453125 L 17.703125 -39.578125 C 17.703125 -42.078125 17.191406 -43.894531 16.171875 -45.03125 C 14.585938 -46.789062 11.640625 -48.722656 7.328125 -50.828125 C 11.296875 -52.640625 13.816406 -54.082031 14.890625 -55.15625 C 16.765625 -57.03125 17.703125 -59.332031 17.703125 -62.0625 L 17.703125 -110.234375 C 17.703125 -116.710938 15.066406 -119.953125 9.796875 -119.953125 C 7.859375 -119.953125 6.265625 -119.46875 5.015625 -118.5 C 4.222656 -119.570312 3.828125 -120.691406 3.828125 -121.859375 C 3.828125 -123.023438 4.125 -124.144531 4.71875 -125.21875 C 5.320312 -126.300781 6.242188 -127.296875 7.484375 -128.203125 C 10.160156 -130.128906 13.539062 -131.09375 17.625 -131.09375 C 21.707031 -131.09375 24.882812 -130.835938 27.15625 -130.328125 C 30.28125 -134.242188 33.800781 -136.203125 37.71875 -136.203125 C 43.5625 -136.203125 46.484375 -133.140625 46.484375 -127.015625 L 46.484375 -55.765625 L 71.078125 -78.484375 C 74.828125 -82.347656 76.703125 -85.128906 76.703125 -86.828125 C 76.703125 -88.535156 75.625 -89.390625 73.46875 -89.390625 C 71.3125 -89.390625 69.296875 -88.847656 67.421875 -87.765625 C 66.796875 -88.785156 66.484375 -90.101562 66.484375 -91.71875 C 66.484375 -93.34375 67.332031 -94.921875 69.03125 -96.453125 C 70.738281 -97.984375 73.148438 -98.75 76.265625 -98.75 C 79.390625 -98.75 82.144531 -97.785156 84.53125 -95.859375 C 86.75 -97.785156 89.160156 -98.75 91.765625 -98.75 C 94.378906 -98.75 96.648438 -97.984375 98.578125 -96.453125 C 100.503906 -97.984375 102.773438 -98.75 105.390625 -98.75 C 108.003906 -98.75 110.175781 -98.066406 111.90625 -96.703125 C 113.632812 -95.335938 114.5 -93.523438 114.5 -91.265625 C 114.5 -89.160156 114.210938 -87.710938 113.640625 -86.921875 C 112.109375 -88.453125 110.222656 -89.21875 107.984375 -89.21875 C 105.742188 -89.21875 103.925781 -88.890625 102.53125 -88.234375 C 101.144531 -87.578125 99.628906 -86.640625 97.984375 -85.421875 C 96.335938 -84.203125 94.519531 -82.710938 92.53125 -80.953125 L 78.40625 -68.703125 L 104.375 -17.625 C 105.957031 -14.21875 107.359375 -11.71875 108.578125 -10.125 C 109.796875 -8.539062 111.351562 -7.75 113.25 -7.75 C 115.15625 -7.75 116.734375 -8.226562 117.984375 -9.1875 C 118.785156 -8.113281 119.1875 -6.765625 119.1875 -5.140625 C 119.1875 -3.523438 118.375 -1.976562 116.75 -0.5 C 115.132812 0.96875 112.566406 1.703125 109.046875 1.703125 C 105.523438 1.703125 102.117188 0.738281 98.828125 -1.1875 C 96.160156 0.738281 93.222656 1.703125 90.015625 1.703125 C 86.816406 1.703125 84.023438 0.851562 81.640625 -0.84375 C 79.421875 0.851562 76.9375 1.703125 74.1875 1.703125 C 71.4375 1.703125 69.238281 1.035156 67.59375 -0.296875 C 65.945312 -1.628906 65.125 -3.316406 65.125 -5.359375 C 65.125 -7.398438 65.550781 -8.789062 66.40625 -9.53125 C 68.613281 -7.832031 70.828125 -7.550781 73.046875 -8.6875 C 73.835938 -9.082031 74.546875 -9.847656 75.171875 -10.984375 L 57.125 -50.21875 L 46.484375 -40.953125 L 46.484375 -12.171875 C 47.554688 -9.390625 49.34375 -8 51.84375 -8 C 53.144531 -8 54.453125 -8.507812 55.765625 -9.53125 C 56.609375 -8.789062 57.03125 -7.382812 57.03125 -5.3125 C 57.03125 -3.25 56.207031 -1.5625 54.5625 -0.25 C 52.914062 1.050781 50.703125 1.703125 47.921875 1.703125 C 45.140625 1.703125 42.644531 0.851562 40.4375 -0.84375 C 38.113281 0.851562 35.359375 1.703125 32.171875 1.703125 C 28.992188 1.703125 26.070312 0.796875 23.40625 -1.015625 Z M 30.5625 -52.6875 L 30.640625 -64.015625 L 30.640625 -80.703125 C 30.640625 -91.253906 30.441406 -97.410156 30.046875 -99.171875 C 29.253906 -102.640625 27.804688 -105.050781 25.703125 -106.40625 L 25.703125 -77.71875 C 25.703125 -65.96875 25.570312 -59.425781 25.3125 -58.09375 C 25.0625 -56.757812 24.851562 -55.78125 24.6875 -55.15625 C 24.175781 -53.40625 22.25 -51.960938 18.90625 -50.828125 C 22.300781 -49.628906 24.226562 -48.207031 24.6875 -46.5625 C 25.363281 -43.84375 25.703125 -37.710938 25.703125 -28.171875 L 25.703125 -22.640625 C 28.710938 -24.566406 30.300781 -29.675781 30.46875 -37.96875 L 30.46875 -43.078125 C 30.53125 -44.773438 30.5625 -46.28125 30.5625 -47.59375 Z M 79.765625 -22.5625 C 80.503906 -23.519531 80.875 -24.820312 80.875 -26.46875 C 80.875 -28.113281 80.742188 -29.585938 80.484375 -30.890625 C 80.234375 -32.203125 79.910156 -33.507812 79.515625 -34.8125 C 78.773438 -36.914062 77.695312 -39.414062 76.28125 -42.3125 L 68.1875 -59.84375 L 64.359375 -56.4375 Z M 79.765625 -22.5625 "
        />
      </g>
    </g>
  </g>
</svg>
